<?xml version="1.0" encoding="UTF-8"?>
<svg id="Layer_3" data-name="Layer 3" xmlns="http://www.w3.org/2000/svg" viewBox="0 0 800 240">
  <defs>
    <style>
      .cls-1 {
        stroke-width: 2px;
      }

      .cls-1, .cls-2 {
        fill: none;
        stroke: #000;
      }

      .cls-3 {
        fill: #969;
      }

      .cls-2 {
        stroke-miterlimit: 10;
        stroke-width: 7px;
      }
    </style>
  </defs>
  <line class="cls-2" x1="225.12" y1="158.13" x2="773.09" y2="158.13"/>
  <g>
    <path d="M320.96,189.37l-4.92-25.05h4.26l3.08,17.22,3.75-17.22h4.94l3.61,17.51,3.17-17.51h4.17l-4.99,25.05h-4.42l-4.1-18.74-4.07,18.74h-4.48Z"/>
    <path d="M356.47,183.61l3.91.8c-.52,1.82-1.34,3.18-2.45,4.06-1.11.88-2.45,1.33-4.04,1.33-2.2,0-3.9-.74-5.1-2.21-1.41-1.71-2.12-4.11-2.12-7.19s.71-5.47,2.14-7.29c1.21-1.54,2.77-2.31,4.68-2.31,2.13,0,3.8.79,5.01,2.36,1.39,1.8,2.08,4.46,2.08,7.98l-.02.55h-9.86c.02,1.44.35,2.56.97,3.35s1.37,1.18,2.25,1.18c1.27,0,2.11-.87,2.54-2.6ZM356.68,178.74c-.03-1.42-.34-2.49-.91-3.2-.57-.71-1.25-1.07-2.03-1.07-.83,0-1.53.37-2.1,1.12-.58.75-.87,1.81-.85,3.16h5.9Z"/>
    <path d="M366.82,189.37v-25.05h3.95v9.01c.6-.84,1.27-1.48,1.99-1.9.72-.42,1.5-.63,2.33-.63,1.75,0,3.23.79,4.44,2.38,1.21,1.59,1.82,3.93,1.82,7.02s-.62,5.45-1.86,7.11c-1.24,1.66-2.7,2.49-4.37,2.49-.85,0-1.69-.27-2.53-.79-.83-.53-1.54-1.3-2.12-2.3v2.67h-3.66ZM370.73,179.9c0,1.57.15,2.76.44,3.58.3.82.72,1.45,1.26,1.88.55.43,1.12.64,1.73.64.87,0,1.61-.45,2.22-1.36s.92-2.34.92-4.31c0-2.07-.31-3.56-.93-4.48s-1.41-1.38-2.37-1.38-1.69.45-2.32,1.34c-.64.89-.96,2.26-.96,4.1Z"/>
    <path d="M386.38,184.2l3.95-.74c.34,1.9,1.4,2.85,3.18,2.85.95,0,1.65-.18,2.12-.55.47-.37.7-.84.7-1.42,0-.4-.1-.71-.31-.94-.22-.23-.65-.43-1.29-.6-3.23-.86-5.29-1.68-6.17-2.45-1.09-.97-1.64-2.3-1.64-3.99s.54-3.04,1.61-4.06c1.07-1.02,2.63-1.52,4.67-1.52s3.43.38,4.44,1.14c1.01.76,1.73,1.98,2.14,3.67l-3.71.84c-.33-1.46-1.26-2.19-2.8-2.19-.97,0-1.66.14-2.07.42-.41.28-.62.64-.62,1.09,0,.4.19.73.56.99.38.27,1.54.69,3.5,1.24,2.2.62,3.69,1.37,4.48,2.25.78.88,1.16,2.05,1.16,3.51,0,1.76-.6,3.2-1.8,4.34-1.2,1.14-2.86,1.71-4.98,1.71-1.93,0-3.5-.48-4.72-1.43-1.22-.95-2.02-2.34-2.41-4.16Z"/>
    <path d="M406.94,168.75v-4.44h3.95v4.44h-3.95ZM406.94,189.37v-18.15h3.95v18.15h-3.95Z"/>
    <path d="M424.95,171.22v3.83h-2.68v7.33c0,1.59.04,2.5.12,2.76.16.46.48.68.97.68.36,0,.89-.15,1.57-.46l.34,3.72c-.91.48-1.94.72-3.09.72-1,0-1.81-.24-2.41-.72-.6-.48-1.01-1.17-1.21-2.07-.16-.66-.24-2.01-.24-4.04v-7.92h-1.81v-3.83h1.81v-3.61l3.95-2.8v6.41h2.68Z"/>
    <path d="M439.57,183.61l3.91.8c-.53,1.82-1.34,3.18-2.45,4.06-1.11.88-2.45,1.33-4.04,1.33-2.2,0-3.9-.74-5.1-2.21-1.42-1.71-2.12-4.11-2.12-7.19s.71-5.47,2.14-7.29c1.21-1.54,2.77-2.31,4.68-2.31,2.13,0,3.8.79,5.01,2.36,1.39,1.8,2.08,4.46,2.08,7.98l-.02.55h-9.86c.02,1.44.35,2.56.97,3.35.62.79,1.38,1.18,2.25,1.18,1.27,0,2.11-.87,2.54-2.6ZM439.77,178.74c-.03-1.42-.34-2.49-.91-3.2-.57-.71-1.25-1.07-2.03-1.07-.83,0-1.53.37-2.1,1.12-.58.75-.87,1.81-.85,3.16h5.9Z"/>
    <path d="M490.02,189.37h-4.5l-1.8-5.67h-8.22l-1.7,5.67h-4.41l8-25.05h4.39l8.23,25.05ZM482.39,179.45l-2.84-9.3-2.78,9.3h5.62Z"/>
    <path d="M495.27,171.22h3.66v2.67c.5-.96,1.16-1.71,1.99-2.26.82-.55,1.71-.83,2.65-.83,1.7,0,3.16.81,4.39,2.43s1.84,3.92,1.84,6.9c0,3.13-.62,5.52-1.85,7.18-1.23,1.66-2.69,2.49-4.39,2.49-.79,0-1.52-.19-2.2-.57-.68-.38-1.39-1.07-2.14-2.08v9.13h-3.95v-25.05ZM499.17,179.98c0,2.06.33,3.57,1,4.54s1.47,1.46,2.41,1.46,1.65-.45,2.27-1.35c.61-.9.92-2.36.92-4.4s-.32-3.36-.95-4.28-1.4-1.38-2.31-1.38c-.96,0-1.75.45-2.39,1.35-.64.9-.96,2.25-.96,4.05Z"/>
    <path d="M516.03,171.22h3.66v2.67c.5-.96,1.16-1.71,1.99-2.26.82-.55,1.71-.83,2.65-.83,1.7,0,3.16.81,4.39,2.43s1.84,3.92,1.84,6.9c0,3.13-.62,5.52-1.85,7.18-1.23,1.66-2.69,2.49-4.39,2.49-.79,0-1.52-.19-2.2-.57-.68-.38-1.39-1.07-2.14-2.08v9.13h-3.95v-25.05ZM519.92,179.98c0,2.06.33,3.57,1,4.54s1.47,1.46,2.41,1.46,1.65-.45,2.27-1.35c.61-.9.92-2.36.92-4.4s-.32-3.36-.95-4.28-1.4-1.38-2.31-1.38c-.96,0-1.75.45-2.39,1.35-.64.9-.96,2.25-.96,4.05Z"/>
    <path d="M536.9,189.37v-25.05h3.95v25.05h-3.95Z"/>
    <path d="M548.1,168.75v-4.44h3.95v4.44h-3.95ZM548.1,189.37v-18.15h3.95v18.15h-3.95Z"/>
    <path d="M572.29,176.56l-3.88.86c-.29-1.9-1.19-2.85-2.7-2.85-.97,0-1.76.41-2.36,1.23s-.89,2.21-.89,4.17c0,2.16.3,3.69.89,4.58.59.89,1.39,1.34,2.38,1.34.74,0,1.35-.25,1.83-.76.48-.51.82-1.4,1.03-2.69l3.88.8c-.8,4.38-3.09,6.56-6.89,6.56-2.43,0-4.23-.92-5.4-2.77-1.17-1.85-1.76-4.08-1.76-6.68,0-3.12.66-5.49,1.99-7.11,1.33-1.63,3.07-2.44,5.23-2.44,1.75,0,3.17.46,4.27,1.38,1.1.92,1.89,2.39,2.37,4.39Z"/>
    <path d="M581.42,176.74l-3.57-.79c.43-1.83,1.15-3.15,2.14-3.96,1-.8,2.43-1.2,4.3-1.2,1.66,0,2.93.23,3.81.7.88.47,1.5,1.1,1.88,1.91s.56,2.27.56,4.39l-.03,5.61c0,1.57.06,2.75.19,3.52.12.77.36,1.59.7,2.45h-3.9l-.51-1.98c-.67.8-1.39,1.4-2.16,1.8-.77.4-1.59.61-2.45.61-1.45,0-2.63-.49-3.55-1.46-.92-.98-1.38-2.27-1.38-3.89,0-1.03.19-1.92.56-2.69.38-.76.91-1.38,1.59-1.83s1.78-.86,3.28-1.21c1.82-.42,3.09-.82,3.81-1.18,0-1.01-.07-1.67-.21-1.98-.14-.32-.41-.57-.79-.77-.38-.2-.92-.3-1.62-.3s-1.26.16-1.67.48c-.41.32-.73.92-.98,1.79ZM586.69,180.65c-.5.21-1.28.45-2.34.72-1.22.32-2.02.67-2.39,1.06-.38.39-.56.89-.56,1.51,0,.7.21,1.28.62,1.76s.94.71,1.56.71c.56,0,1.11-.19,1.66-.57.55-.38.93-.84,1.14-1.36.21-.53.32-1.48.32-2.86v-.96Z"/>
    <path d="M604.47,171.22v3.83h-2.68v7.33c0,1.59.04,2.5.12,2.76.16.46.48.68.97.68.36,0,.89-.15,1.57-.46l.34,3.72c-.91.48-1.94.72-3.09.72-1,0-1.81-.24-2.41-.72-.6-.48-1.01-1.17-1.21-2.07-.16-.66-.24-2.01-.24-4.04v-7.92h-1.81v-3.83h1.81v-3.61l3.95-2.8v6.41h2.68Z"/>
    <path d="M610.44,168.75v-4.44h3.95v4.44h-3.95ZM610.44,189.37v-18.15h3.95v18.15h-3.95Z"/>
    <path d="M620.72,180.03c0-1.78.35-3.4,1.06-4.86.71-1.46,1.63-2.56,2.77-3.29,1.14-.73,2.42-1.1,3.85-1.1,2.39,0,4.27.94,5.64,2.82,1.37,1.88,2.05,4.07,2.05,6.58,0,1.87-.36,3.56-1.07,5.07s-1.65,2.64-2.8,3.4-2.42,1.14-3.8,1.14c-2.21,0-4.04-.84-5.5-2.53-1.46-1.69-2.19-4.1-2.19-7.23ZM624.75,180.29c0,1.84.36,3.23,1.08,4.17.72.94,1.59,1.41,2.6,1.41s1.84-.47,2.55-1.42,1.06-2.35,1.06-4.2-.36-3.18-1.08-4.13c-.72-.95-1.58-1.42-2.59-1.42s-1.85.47-2.56,1.42-1.07,2.34-1.07,4.17Z"/>
    <path d="M655.93,189.37h-3.95v-9.27c0-1.86-.07-3.1-.22-3.71-.15-.62-.42-1.09-.83-1.42-.41-.33-.86-.5-1.38-.5-.66,0-1.26.21-1.79.64-.54.43-.91,1.02-1.13,1.77-.22.75-.33,2.17-.33,4.26v8.23h-3.95v-18.15h3.66v2.65c.65-1.03,1.38-1.79,2.2-2.31s1.72-.77,2.71-.77c1.15,0,2.12.3,2.91.9.79.6,1.34,1.37,1.64,2.31.3.94.45,2.3.45,4.08v11.29Z"/>
    <path d="M359.3,231.37l-7.35-25.05h4.5l5.2,18.54,5.03-18.54h4.41l-7.37,25.05h-4.42Z"/>
    <path d="M385.09,231.37v-2.71c-.55.98-1.26,1.75-2.15,2.31-.89.55-1.81.83-2.78.83s-1.85-.26-2.63-.77c-.77-.51-1.35-1.24-1.73-2.19-.38-.95-.57-2.32-.57-4.12v-11.5h3.95v8.34c0,2.38.06,3.89.18,4.54.12.64.38,1.14.79,1.5.41.35.9.53,1.48.53.66,0,1.27-.23,1.82-.69.56-.46.92-1.05,1.1-1.78.18-.72.26-2.32.26-4.78v-7.66h3.95v18.15h-3.67Z"/>
    <path d="M396.09,231.37v-25.05h3.95v25.05h-3.95Z"/>
    <path d="M420.82,231.37h-3.95v-9.27c0-1.86-.07-3.1-.22-3.71-.15-.62-.42-1.09-.83-1.42-.41-.33-.86-.5-1.38-.5-.66,0-1.26.21-1.79.64-.54.43-.91,1.02-1.13,1.77-.22.75-.33,2.17-.33,4.26v8.23h-3.95v-18.15h3.66v2.65c.65-1.03,1.38-1.79,2.2-2.31s1.72-.77,2.71-.77c1.15,0,2.12.3,2.91.9.79.6,1.34,1.37,1.64,2.31.3.94.45,2.3.45,4.08v11.29Z"/>
    <path d="M436.69,225.61l3.91.8c-.53,1.82-1.34,3.18-2.45,4.06-1.11.88-2.45,1.33-4.04,1.33-2.2,0-3.9-.74-5.1-2.21-1.42-1.71-2.12-4.11-2.12-7.19s.71-5.47,2.14-7.29c1.21-1.54,2.77-2.31,4.68-2.31,2.13,0,3.8.79,5.01,2.36,1.39,1.8,2.08,4.46,2.08,7.98l-.02.55h-9.86c.02,1.44.35,2.56.97,3.35.62.79,1.38,1.18,2.25,1.18,1.27,0,2.11-.87,2.54-2.6ZM436.89,220.74c-.03-1.42-.34-2.49-.91-3.2-.57-.71-1.25-1.07-2.03-1.07-.83,0-1.53.37-2.1,1.12-.58.75-.87,1.81-.85,3.16h5.9Z"/>
    <path d="M451,231.37h-3.95v-18.15h3.66v2.58c.63-1.21,1.19-2.01,1.68-2.41.5-.4,1.07-.6,1.72-.6.9,0,1.76.3,2.58.91l-1.23,4.19c-.65-.52-1.26-.79-1.85-.79-.55,0-1.03.2-1.44.61-.42.4-.72,1.14-.9,2.2-.18,1.06-.27,3.01-.27,5.85v5.61Z"/>
    <path d="M464.54,218.74l-3.57-.79c.43-1.83,1.15-3.15,2.14-3.96,1-.8,2.43-1.2,4.3-1.2,1.66,0,2.93.23,3.81.7.88.47,1.5,1.1,1.88,1.91s.56,2.27.56,4.39l-.03,5.61c0,1.57.06,2.75.19,3.52.12.77.36,1.59.7,2.45h-3.9l-.51-1.98c-.67.8-1.39,1.4-2.16,1.8-.77.4-1.59.61-2.45.61-1.45,0-2.63-.49-3.55-1.46-.92-.98-1.38-2.27-1.38-3.89,0-1.03.19-1.92.56-2.69.38-.76.91-1.38,1.59-1.83s1.78-.86,3.28-1.21c1.82-.42,3.09-.82,3.81-1.18,0-1.01-.07-1.67-.21-1.98-.14-.32-.41-.57-.79-.77-.38-.2-.92-.3-1.62-.3s-1.26.16-1.67.48c-.41.32-.73.92-.98,1.79ZM469.81,222.65c-.5.21-1.28.45-2.34.72-1.22.32-2.02.67-2.39,1.06-.38.39-.56.89-.56,1.51,0,.7.21,1.28.62,1.76s.94.71,1.56.71c.56,0,1.11-.19,1.66-.57.55-.38.93-.84,1.14-1.36.21-.53.32-1.48.32-2.86v-.96Z"/>
    <path d="M480.6,231.37v-25.05h3.95v9.01c.6-.84,1.26-1.48,1.99-1.9.72-.42,1.5-.63,2.33-.63,1.75,0,3.23.79,4.44,2.38,1.21,1.59,1.82,3.93,1.82,7.02s-.62,5.45-1.86,7.11c-1.24,1.66-2.7,2.49-4.37,2.49-.85,0-1.7-.27-2.53-.79-.83-.53-1.54-1.3-2.12-2.3v2.67h-3.66ZM484.51,221.9c0,1.57.15,2.76.45,3.58.3.82.72,1.45,1.26,1.88.55.43,1.12.64,1.73.64.87,0,1.61-.45,2.22-1.36s.92-2.34.92-4.31c0-2.07-.31-3.56-.93-4.48s-1.41-1.38-2.37-1.38-1.69.45-2.32,1.34c-.64.89-.96,2.26-.96,4.1Z"/>
    <path d="M501.54,210.75v-4.44h3.95v4.44h-3.95ZM501.54,231.37v-18.15h3.95v18.15h-3.95Z"/>
    <path d="M512.74,231.37v-25.05h3.95v25.05h-3.95Z"/>
    <path d="M523.94,210.75v-4.44h3.95v4.44h-3.95ZM523.94,231.37v-18.15h3.95v18.15h-3.95Z"/>
    <path d="M541.94,213.22v3.83h-2.68v7.33c0,1.59.04,2.5.12,2.76.16.46.48.68.97.68.36,0,.89-.15,1.57-.46l.34,3.72c-.91.48-1.94.72-3.09.72-1,0-1.81-.24-2.41-.72-.6-.48-1.01-1.17-1.21-2.07-.16-.66-.24-2.01-.24-4.04v-7.92h-1.81v-3.83h1.81v-3.61l3.95-2.8v6.41h2.68Z"/>
    <path d="M546.03,213.22h4.21l3.54,12.89,3.48-12.89h4.08l-5.25,17.47-1.01,3.4c-.45,1.28-.89,2.21-1.33,2.8-.44.59-1,1.05-1.68,1.37-.68.32-1.52.48-2.51.48-.76,0-1.51-.1-2.24-.29l-.34-3.76c.62.15,1.17.22,1.66.22.75,0,1.37-.25,1.86-.75s.88-1.41,1.19-2.73l-5.66-18.21Z"/>
    <path d="M578.43,231.37v-24.85h4.13v20.61h10.32v4.24h-14.46Z"/>
    <path d="M601.99,218.74l-3.57-.79c.43-1.83,1.15-3.15,2.14-3.96,1-.8,2.43-1.2,4.3-1.2,1.66,0,2.93.23,3.81.7.88.47,1.5,1.1,1.88,1.91s.56,2.27.56,4.39l-.03,5.61c0,1.57.06,2.75.19,3.52.12.77.36,1.59.7,2.45h-3.9l-.51-1.98c-.67.8-1.39,1.4-2.16,1.8-.77.4-1.59.61-2.45.61-1.45,0-2.63-.49-3.55-1.46-.92-.98-1.38-2.27-1.38-3.89,0-1.03.19-1.92.56-2.69.38-.76.91-1.38,1.59-1.83s1.78-.86,3.28-1.21c1.82-.42,3.09-.82,3.81-1.18,0-1.01-.07-1.67-.21-1.98-.14-.32-.41-.57-.79-.77-.38-.2-.92-.3-1.62-.3s-1.26.16-1.67.48c-.41.32-.73.92-.98,1.79ZM607.26,222.65c-.5.21-1.28.45-2.34.72-1.22.32-2.02.67-2.39,1.06-.38.39-.56.89-.56,1.51,0,.7.21,1.28.62,1.76s.94.71,1.56.71c.56,0,1.11-.19,1.66-.57.55-.38.93-.84,1.14-1.36.21-.53.32-1.48.32-2.86v-.96Z"/>
    <path d="M618.04,231.37v-25.05h3.95v9.01c.6-.84,1.26-1.48,1.99-1.9.72-.42,1.5-.63,2.33-.63,1.75,0,3.23.79,4.44,2.38,1.21,1.59,1.82,3.93,1.82,7.02s-.62,5.45-1.86,7.11c-1.24,1.66-2.7,2.49-4.37,2.49-.85,0-1.7-.27-2.53-.79-.83-.53-1.54-1.3-2.12-2.3v2.67h-3.66ZM621.96,221.9c0,1.57.15,2.76.45,3.58.3.82.72,1.45,1.26,1.88.55.43,1.12.64,1.73.64.87,0,1.61-.45,2.22-1.36s.92-2.34.92-4.31c0-2.07-.31-3.56-.93-4.48s-1.41-1.38-2.37-1.38-1.69.45-2.32,1.34c-.64.89-.96,2.26-.96,4.1Z"/>
  </g>
  <g>
    <g>
      <path class="cls-3" d="M75.69,59.58h9.41v2.98l3.93-1.81c17.21-34.17,21.76-34.52,61.28-22.59,30.78,9.29,43.63,14.1,37.89,49.21,4.93,7.5,11.05,17.3,11.05,17.3l6.82,12.81c28.47-92.04,1.98-89.6-46.18-104.14C108.26-2.23,90.83-3.74,64.94,71.83l10.75-4.94v-7.31Z"/>
      <path class="cls-3" d="M203.04,122.73l-15.71-30.01c-.17.97-.09.51-.28,1.52-21.43-26.05-58.81-38.09-95.31-27.61-47.79,13.72-75.96,60.8-62.93,105.17,13.03,44.37,62.34,69.22,110.13,55.5,47.21-13.55,75.25-59.67,63.36-103.56.36-1.13.4.1.75-1.01ZM89.98,79.43c.96-1.73,2.52-3.08,4.31-3.98,5.22-2.65,10.85-4.53,16.64-5.57l.62-.38c1.41-.87,3.1-1.23,4.74-.95,7.32,1.24,14.51,3.18,21.44,5.78.61.23,1.23.47,1.68.93.75.75.86,1.89,1.08,2.92,1.15,5.28,6.12,9.15,10.29,12.07,1.89,1.32,3.67,2.79,5.26,4.45,1.45,1.5,2.9,3.29,3.38,5.38.36,1.58.15,3.22-.14,4.81-.6,3.26-1.73,6.74-4.54,8.58-3.51,2.3-8.19,1.2-12.24.02-1.9-.55-3.86-1.14-5.35-2.42-2.72-2.34-3.12-6.27-4.65-9.48-3.27-6.86-11.4-9.92-18.84-11.97-6.28-1.73-12.63-3.2-19.04-4.41-2.27-.43-5.07-1.36-5.24-3.62-.06-.75.23-1.49.59-2.15ZM50.08,103.75c3.69-9.47,11.1-17.19,19.99-21.01,1.56-.67,3.4-.15,4.36,1.23l.72,1.03c.42.6,1.02,1.06,1.72,1.29,1.85.63,3.7,1.66,4.01,3.61.16,1-.15,2.02-.54,2.94-1.86,4.41-5.53,7.7-9.5,10.04-5.58,3.28-12.11,4.97-18.4,3.94-1.19-.19-2.65-.84-2.61-2.13,0-.33.13-.64.24-.94ZM116.07,218.98c-4.59,2.89-10.45,2.8-15.88,2.3-2.9-.27-5.89-.66-8.4-2.1-1.56-.9-2.85-2.16-4.13-3.41-.45-.44-.9-.89-1.12-1.47-.42-1.15.25-2.42,1.12-3.29,2.47-2.44,6.8-2.78,9.63-.75.37.27.71.6.99.97,6.36-.21,13.25-.11,18.08,3.88.62.51,1.23,1.17,1.2,1.96-.03.84-.77,1.48-1.49,1.93ZM124.33,124.41c-2.2,19.25-17.69,25.19-28.76,22.98l4.19,48.73-51.64-15.52,26.8-40.79s-6.05-3.59-6.05-17.78c0-14.32,12.91-21.57,24.75-22.13,15.17-.72,32.61,7.96,30.72,24.5ZM183.43,134.18c2.65.04,5.23,1.04,7.06,2.93,1.18,1.22,2.15,2.54,2.91,3.95,4.91,9.01,3.46,19.33-.72,28.54-4.18,9.22-10.9,17.66-16.68,26.39-3.18,4.8-6.25,9.88-11.83,13.29-5.61,3.42-13.03,4.69-20.2,5.59-4.77.6-9.96,1.03-14.17-.73-1.47-.61-2.82-1.57-3.07-2.8-.5-2.38,2.98-4.02,5.78-5.24,2.77-1.21,5.41-2.68,7.27-4.62,4.18-4.35,3.79-10.27,1.85-15.4-1.94-5.14-5.25-9.99-6.48-15.25-.72-3.09-.7-6.26-.51-9.4.26-4.16.95-8.56,4.44-11.82,2.17-2.03,5.23-3.41,8.31-4.63,7.95-3.14,17-4.98,23.89-9.32,1.66-1.05,3.6-1.6,5.58-1.57l6.56.09Z"/>
    </g>
    <g>
      <path class="cls-1" d="M251.62,139.89l-26.5-118.38h23.24l16.36,81.92,20.99-81.92h27l19.21,83.29,17.8-83.29h22.77l-27.96,118.38h-24.11l-22.19-87.98-22.04,87.7-24.56.28Z"/>
      <path class="cls-1" d="M540.34,139.85l-39.92-118.33h24.55l28.41,88.17,27.48-88.17h24.08l-40.14,118.33h-24.47Z"/>
      <path class="cls-1" d="M635.28,139.89l-.45-117.35,22.58.15-.28,102.26,61.94,1.16.49,13.39-84.28.4Z"/>
      <path class="cls-1" d="M492.5,140.23l-24.2.37-10.18-26.39h-44.91l-9.23,26.1h-24.08l43.74-118.38,23.89.28,44.97,118.02ZM450.83,94.18l-15.49-43.92-15.2,43.92h30.69Z"/>
    </g>
    <g>
      <path d="M259.44,141.75l-26.89-122.22h23.24l16.84,83.99,20.51-83.99h27l19.69,85.41,17.31-85.41h22.77l-27.25,122.22h-24.11l-22.41-91.42-22.21,91.42h-24.49Z"/>
      <path d="M548.48,141.75l-40.14-122.22h24.55l28.41,90.46,27.48-90.46h24.08l-40.23,122.22h-24.15Z"/>
      <path d="M642.48,141.75V20.53h22.58v100.54h56.37v20.68h-78.95Z"/>
      <path d="M500.42,142.32h-24.56l-9.82-27.68h-44.91l-9.28,27.68h-24.08l43.69-122.22h23.99l44.97,122.22ZM458.75,93.97l-15.49-45.35-15.2,45.35h30.69Z"/>
    </g>
  </g>
</svg>