<?xml version="1.0" encoding="UTF-8"?>
<svg id="Layer_1" data-name="Layer 1" xmlns="http://www.w3.org/2000/svg" viewBox="0 0 128 128">
  <defs>
    <style>
      .cls-1 {
        fill: #969;
      }
    </style>
  </defs>
  <path class="cls-1" d="M37.47,31.19h5.26v1.67l2.2-1.01c9.62-19.1,12.16-19.29,34.25-12.62,17.2,5.19,24.39,7.88,21.18,27.5,2.76,4.19,6.18,9.67,6.18,9.67l3.81,7.16c15.91-51.44,1.11-50.08-25.81-58.2C55.67-3.35,45.92-4.2,31.46,38.04l6.01-2.76v-4.09Z"/>
  <path class="cls-1" d="M108.64,66.49l-8.78-16.77c-.09.54-.05.28-.16.85-11.98-14.56-32.87-21.29-53.27-15.43C19.73,42.8,3.98,69.11,11.26,93.91c7.28,24.8,34.84,38.69,61.55,31.02,26.39-7.57,42.06-33.35,35.41-57.88.2-.63.23.05.42-.56ZM45.45,42.29c.54-.97,1.41-1.72,2.41-2.23,2.92-1.48,6.07-2.53,9.3-3.11l.35-.21c.79-.49,1.73-.68,2.65-.53,4.09.69,8.11,1.77,11.98,3.23.34.13.69.26.94.52.42.42.48,1.06.6,1.63.64,2.95,3.42,5.12,5.75,6.75,1.06.74,2.05,1.56,2.94,2.49.81.84,1.62,1.84,1.89,3,.2.88.08,1.8-.08,2.69-.33,1.82-.96,3.76-2.54,4.79-1.96,1.28-4.58.67-6.84.01-1.06-.31-2.16-.64-2.99-1.35-1.52-1.31-1.74-3.5-2.6-5.3-1.83-3.83-6.37-5.54-10.53-6.69-3.51-.97-7.06-1.79-10.64-2.46-1.27-.24-2.83-.76-2.93-2.02-.03-.42.13-.84.33-1.2ZM23.15,55.88c2.06-5.29,6.2-9.61,11.17-11.74.87-.37,1.9-.08,2.44.69l.41.58c.23.33.57.59.96.72,1.03.35,2.07.93,2.24,2.02.09.56-.09,1.13-.3,1.64-1.04,2.47-3.09,4.3-5.31,5.61-3.12,1.84-6.77,2.78-10.28,2.2-.66-.11-1.48-.47-1.46-1.19,0-.18.07-.36.14-.53ZM60.03,120.28c-2.56,1.62-5.84,1.57-8.88,1.28-1.62-.15-3.29-.37-4.69-1.18-.87-.5-1.59-1.21-2.31-1.91-.25-.24-.51-.5-.62-.82-.24-.64.14-1.35.63-1.84,1.38-1.37,3.8-1.56,5.38-.42.21.15.4.34.55.54,3.55-.12,7.4-.06,10.11,2.17.34.28.69.65.67,1.09-.02.47-.43.83-.83,1.08ZM64.65,67.43c-1.23,10.76-9.89,14.08-16.07,12.84l2.34,27.24-28.86-8.68,14.98-22.8s-3.38-2-3.38-9.94c0-8.01,7.22-12.05,13.83-12.37,8.48-.4,18.22,4.45,17.17,13.7ZM97.68,72.89c1.48.02,2.92.58,3.94,1.64.66.68,1.2,1.42,1.63,2.21,2.75,5.04,1.94,10.8-.4,15.95-2.34,5.15-6.09,9.87-9.32,14.75-1.78,2.68-3.49,5.52-6.61,7.43-3.14,1.91-7.28,2.62-11.29,3.12-2.66.33-5.57.58-7.92-.41-.82-.34-1.57-.88-1.72-1.57-.28-1.33,1.66-2.25,3.23-2.93,1.55-.68,3.02-1.5,4.06-2.58,2.33-2.43,2.12-5.74,1.04-8.61-1.09-2.87-2.94-5.58-3.62-8.52-.4-1.73-.39-3.5-.29-5.25.14-2.32.53-4.78,2.48-6.61,1.21-1.13,2.92-1.91,4.65-2.59,4.44-1.75,9.5-2.79,13.35-5.21.93-.59,2.01-.89,3.12-.88l3.67.05Z"/>
</svg>