<?xml version="1.0" encoding="UTF-8"?>
<svg id="Layer_2" data-name="Layer 2" xmlns="http://www.w3.org/2000/svg" viewBox="0 0 400 120">
  <defs>
    <style>
      .cls-1 {
        fill: none;
        stroke: #000;
        stroke-width: 2px;
      }

      .cls-2 {
        fill: #969;
      }
    </style>
  </defs>
  <g>
    <path class="cls-2" d="M41.32,29.87h4.86v1.54l2.03-.93c8.89-17.65,11.24-17.83,31.65-11.67,15.9,4.8,22.54,7.28,19.57,25.41,2.55,3.87,5.71,8.93,5.71,8.93l3.52,6.62c14.71-47.54,1.02-46.28-23.85-53.78C58.14-2.06,49.13-2.84,35.76,36.19l5.55-2.55v-3.78Z"/>
    <path class="cls-2" d="M107.09,62.48l-8.11-15.5c-.09.5-.05.26-.15.78-11.07-13.45-30.37-19.67-49.23-14.26-24.68,7.08-39.23,31.4-32.5,54.32,6.73,22.92,32.2,35.75,56.88,28.66,24.38-7,38.87-30.82,32.72-53.49.19-.58.21.05.39-.52ZM48.69,40.12c.5-.89,1.3-1.59,2.22-2.06,2.7-1.37,5.6-2.34,8.59-2.88l.32-.2c.73-.45,1.6-.63,2.45-.49,3.78.64,7.49,1.64,11.07,2.99.31.12.64.24.87.48.39.39.44.98.56,1.51.59,2.73,3.16,4.73,5.31,6.23.98.68,1.89,1.44,2.72,2.3.75.78,1.5,1.7,1.74,2.78.19.81.08,1.66-.07,2.49-.31,1.68-.89,3.48-2.34,4.43-1.81,1.19-4.23.62-6.32.01-.98-.29-1.99-.59-2.76-1.25-1.4-1.21-1.61-3.24-2.4-4.9-1.69-3.54-5.89-5.12-9.73-6.18-3.24-.89-6.52-1.65-9.83-2.28-1.17-.22-2.62-.7-2.71-1.87-.03-.39.12-.77.31-1.11ZM28.09,52.68c1.91-4.89,5.73-8.88,10.33-10.85.81-.35,1.76-.08,2.25.63l.37.53c.22.31.52.55.89.67.96.32,1.91.86,2.07,1.87.08.52-.08,1.04-.28,1.52-.96,2.28-2.86,3.98-4.9,5.18-2.88,1.7-6.25,2.57-9.5,2.03-.61-.1-1.37-.44-1.35-1.1,0-.17.06-.33.13-.49ZM62.17,112.19c-2.37,1.49-5.4,1.45-8.2,1.19-1.5-.14-3.04-.34-4.34-1.09-.8-.46-1.47-1.12-2.13-1.76-.23-.23-.47-.46-.58-.76-.22-.59.13-1.25.58-1.7,1.27-1.26,3.51-1.44,4.97-.39.19.14.37.31.51.5,3.28-.11,6.84-.06,9.34,2,.32.26.63.6.62,1.01-.02.43-.4.76-.77,1ZM66.43,63.35c-1.14,9.94-9.14,13.01-14.85,11.87l2.16,25.17-26.67-8.02,13.84-21.07s-3.13-1.85-3.12-9.18c0-7.4,6.67-11.14,12.78-11.43,7.83-.37,16.84,4.11,15.86,12.66ZM96.96,68.39c1.37.02,2.7.54,3.64,1.51.61.63,1.11,1.31,1.5,2.04,2.54,4.66,1.79,9.98-.37,14.74-2.16,4.76-5.63,9.12-8.61,13.63-1.64,2.48-3.23,5.11-6.11,6.86-2.9,1.77-6.73,2.42-10.43,2.89-2.46.31-5.15.53-7.32-.38-.76-.32-1.45-.81-1.59-1.45-.26-1.23,1.54-2.07,2.99-2.71,1.43-.62,2.79-1.38,3.75-2.39,2.16-2.25,1.96-5.3.96-7.96-1-2.65-2.71-5.16-3.35-7.87-.37-1.6-.36-3.23-.26-4.85.13-2.15.49-4.42,2.29-6.11,1.12-1.05,2.7-1.76,4.29-2.39,4.11-1.62,8.78-2.57,12.34-4.81.86-.54,1.86-.83,2.88-.81l3.39.05Z"/>
  </g>
  <g>
    <path class="cls-1" d="M136.57,99.45l-13.35-59.62h11.71l8.24,41.26,10.57-41.26h13.6l9.67,41.95,8.96-41.95h11.47l-14.08,59.62h-12.15l-11.17-44.31-11.1,44.17-12.37.14Z"/>
    <path class="cls-1" d="M282,99.43l-20.11-59.6h12.36l14.31,44.41,13.84-44.41h12.13l-20.22,59.6h-12.32Z"/>
    <path class="cls-1" d="M329.82,99.45l-.23-59.11,11.37.07-.14,51.51,31.2.59.24,6.74-42.45.2Z"/>
    <path class="cls-1" d="M257.9,99.62l-12.19.19-5.13-13.29h-22.62l-4.65,13.15h-12.13l22.03-59.63,12.03.14,22.65,59.45ZM236.91,76.43l-7.8-22.12-7.66,22.12h15.46Z"/>
  </g>
  <g>
    <path d="M140.51,100.39l-13.54-61.56h11.71l8.48,42.31,10.33-42.31h13.6l9.92,43.02,8.72-43.02h11.47l-13.72,61.56h-12.15l-11.29-46.04-11.19,46.04h-12.33Z"/>
    <path d="M286.1,100.39l-20.22-61.56h12.36l14.31,45.56,13.84-45.56h12.13l-20.26,61.56h-12.17Z"/>
    <path d="M333.45,100.39v-61.06h11.38v50.64h28.39v10.41h-39.77Z"/>
    <path d="M261.89,100.67h-12.37l-4.95-13.94h-22.62l-4.67,13.94h-12.13l22-61.56h12.08l22.65,61.56ZM240.9,76.32l-7.8-22.84-7.66,22.84h15.46Z"/>
  </g>
</svg>